<?xml version="1.0" encoding="utf-8"?>
<!-- Generator: Adobe Illustrator 23.0.5, SVG Export Plug-In . SVG Version: 6.00 Build 0)  -->
<svg version="1.1" id="Слой_1" xmlns="http://www.w3.org/2000/svg" xmlns:xlink="http://www.w3.org/1999/xlink" x="0px" y="0px"
	 viewBox="0 0 256.1 256" style="enable-background:new 0 0 256.1 256;" xml:space="preserve">
<style type="text/css">
	.st0{fill:#FFFFFF;}
	.st1{fill:#DD0000;}
</style>
<title>logo</title>
<path class="st0" d="M0.6,116.3l0.1-0.7l0.3-0.2l-0.3-0.1l0.1-0.5v-0.4c0.6-6.5,1.7-12.9,3.5-19.2C17.4,46.1,58.2,9.4,108.4,1.6
	c23.7-3.9,48.1-0.8,70.1,8.8c29.1,12.6,50.6,33.3,64.7,61.6c5.9,11.9,9.8,24.8,11.6,37.9c4.9,34.2-4.3,68.8-25.4,96.1
	c-16.5,21.6-39.6,37.3-65.7,44.8c-31.1,9-64.4,5.9-93.3-8.6c-24.5-12.3-44.4-32.1-56.7-56.6C6.9,172.4,2.6,158,0.9,143.2
	c0-0.4,0-0.9,0-1.3v-0.4c0-0.2,0-0.4-0.1-0.6l0.2-0.2l-0.3-0.1l-0.1-0.7c0.2-1,0.6-2-0.2-2.9l-0.1-1c0.1-0.2,0.2-0.5,0.2-0.7
	c0-4.8,0-9.7,0-14.5c0-0.3-0.1-0.5-0.2-0.7l0.1-0.7C1.3,118.5,0.8,117.4,0.6,116.3z M243.1,121.5c-0.1-0.3-0.1-0.5-0.1-0.8
	c-1-17.3-6-34.1-14.6-49.1c-22.6-40.1-66.9-62.9-112.7-58c-13.2,1.2-26.1,4.9-38,10.9c-37.2,19.2-58.8,49.5-64.1,91.2
	c-2.3,17.8,0,35.9,6.5,52.6c13.1,33.6,36.7,56.6,70.7,68.6c16.8,5.9,34.8,7.7,52.4,5.2c16.4-2.1,32.2-7.8,46.1-16.7
	c23.1-14.7,39.1-35.1,47.9-61c3.1-9.2,5-18.7,5.7-28.3c0.8-0.2,0.5-0.8,0.5-1.3c0-1.4,0-2.9,0-4.3v-10h-0.2L243.1,121.5z"/>
<path class="st1" d="M0.3,120.1c0.1,0.2,0.2,0.5,0.2,0.7c0,4.8,0,9.7,0,14.5c0,0.3-0.1,0.5-0.2,0.7C-0.1,130.8-0.1,125.4,0.3,120.1z
	"/>
<path class="st1" d="M0.6,116.3c0.2,1.1,0.7,2.2-0.3,3.2C0.4,118.4,0.5,117.3,0.6,116.3z"/>
<path class="st1" d="M0.4,137.1c0.8,0.9,0.4,1.9,0.2,2.9L0.4,137.1z"/>
<path class="st1" d="M0.7,115.3l0.2,0.1l-0.3,0.2L0.7,115.3z"/>
<path class="st1" d="M0.8,114.3v0.4V114.3z"/>
<path class="st1" d="M0.8,141.5v0.4c0-0.1-0.1-0.2-0.1-0.3C0.7,141.6,0.8,141.6,0.8,141.5z"/>
<path class="st1" d="M0.7,140.6l0.2,0.1L0.7,141C0.6,140.9,0.6,140.8,0.7,140.6C0.7,140.7,0.7,140.7,0.7,140.6z"/>
<path class="st1" d="M243.1,134.4c0-4.3,0-8.6,0-12.9c0.1-0.3,0.1-0.7,0.2-1.1h0.2v10c0,1.4,0,2.9,0,4.3c0,0.5,0.2,1.1-0.5,1.3
	l0.1-1L243.1,134.4z"/>
<path class="st1" d="M66.3,139.4c7.1-7,14.1-14.1,21.2-21.1c22.6-22.6,45.2-45.2,67.8-67.8c1-1,1.5-0.8,2.4,0
	c13.7,13.7,27.4,27.4,41.1,41.1c0.3,0.3,0.7,0.6,1.1,1s0.8,0.9,1.2,1.3s0.6,0.8,0,1.3c-4.7,4.6-9.3,9.2-13.9,13.8l-0.4,0.4l0,0
	l-0.4,0.3l0,0l-0.3,0.3l0,0l-0.3,0.4l-0.6,0.6c-0.5,0-0.7,0.2-0.7,0.7l0,0l-0.3,0.4l0,0l-0.4,0.3l0,0l-0.3,0.3l0,0
	c-0.8-0.2-1.1,0.2-1,1l-0.3,0.3l-0.4,0.3l0,0c-0.5,0-0.7,0.2-0.6,0.7l0,0l-0.3,0.3l0,0l-0.4,0.3l0,0l-0.3,0.3l0,0
	c-0.8-0.1-1.1,0.2-1,1l0,0l-0.3,0.4l-0.3,0.3c-0.5,0-0.7,0.2-0.7,0.7l0,0l-0.3,0.3l0,0l-0.4,0.3l0,0l-0.3,0.3l0,0
	c-0.8-0.1-1.1,0.2-1,1l-0.3,0.3l-0.4,0.3l0,0l-0.3,0.4l-0.3,0.3l-0.4,0.3l0,0l-0.4,0.3l0,0l-0.3,0.3l0,0c-0.8-0.1-1.1,0.2-1,1l0,0
	c-0.5,0-0.7,0.2-0.7,0.7c-4.3,4.3-8.6,8.6-12.9,12.9c-16.1,16.1-32.2,32.2-48.2,48.2c-0.8,0.8-1.2,1-2.1,0.1
	c-14-14.7-28.2-29.3-42.6-43.6c-0.8-0.8-0.9-1.4-0.1-2.2l0,0L66.3,139.4z M159.6,63c-1.6,0-3.1,0.7-4.3,1.8
	c-1.3,1.3-2.6,2.5-3.9,3.8c-0.6,0.7-1.4,1.2-2.3,1.4c-9.7,2.8-15.9,9-18.6,18.7c-0.2,0.7-0.5,1.3-1,1.8c-4.9,4.8-9.7,9.6-14.5,14.5
	c-0.5,0.5-1.1,0.8-1.8,1c-9.7,2.7-16.1,8.9-18.9,18.6c-0.2,0.9-0.7,1.7-1.4,2.3c-2.4,2.3-4.7,4.6-7,7c-2.7,2.8-2.8,6.2,0,9
	c7.4,7.5,14.8,14.9,22.3,22.3c2.3,2.4,6.1,2.6,8.5,0.3c0.1-0.1,0.2-0.2,0.3-0.3c2.7-2.6,5.2-5.2,7.8-7.8c0.5-0.5,1.2-0.9,1.9-1.1
	c9-2.8,15-8.7,17.8-17.7c0.2-0.8,0.7-1.4,1.2-2c5.1-5.1,10.2-10.2,15.3-15.3c0.5-0.5,1.2-0.9,1.9-1.2c7.8-2.3,13.6-7.2,16.6-14.8
	c1.3-3.2,3.3-6.1,5.9-8.5l0.5-0.4c2.9-3,3-6.5,0-9.5c-7.3-7.3-14.6-14.6-21.9-21.9C163.1,63.8,161.4,63,159.6,63z"/>
<path class="st1" d="M110.4,189.8c0.1,0.3,0.3,0.5,0.6,0.6c1,0.7,1.4,2,2.6,2.5l0.3,0.3c0.8,1.2,1.7,2.2,2.8,3l0.3,0.2
	c0.8,1.2,1.8,2.2,2.9,3.1c1.2,1.7,1.2,2.3-0.3,3.7c-0.9,0.9-1.7,1.8-2.6,2.6c-1.3,1.2-2.3,1.2-3.6-0.1c-4.4-4.4-8.8-8.8-13.2-13.3
	c-0.7-0.7-1.1-0.8-1.9-0.1c-1.9,1.6-4.7,1.5-6.4-0.2c-2.6-2.4-5.1-4.9-7.5-7.4c-1.7-1.8-1.9-4.5-0.3-6.4c0.6-0.8,0.7-1.2-0.1-1.9
	c-3.1-3-6.1-6-9.1-9c-0.6-0.6-1-0.7-1.7-0.1c-1.9,1.7-4.9,1.6-6.7-0.3c-2.5-2.3-4.9-4.8-7.3-7.3c-1.9-1.8-2-4.7-0.3-6.7
	c0.6-0.7,0.5-1.1-0.1-1.7c-3.2-3.1-6.3-6.3-9.4-9.4c-1.6-1.6-1.6-2.5,0-4.1l1.7-1.8c2.2-2.2,2.6-2.2,4.9-0.3c0.9,1.2,2,2.2,3.2,3
	l0.4,0.6c0.7,1,1.5,1.8,2.5,2.4l0.1,0.1c0.5,0.6,1,1.3,1.5,1.8c10.9,10.9,21.8,21.8,32.7,32.7C101.3,180.9,105.9,185.3,110.4,189.8z
	"/>
<path class="st1" d="M201,111.8c-1.8-1.8-3.5-3.6-5.3-5.3c-1-0.9-0.9-1.5,0.1-2.2c0.8-0.5,1-1.7,2.2-1.5c0.6,0.9,1.4,1.6,2.2,2.3
	c0.4,0.5,1.1,0.5,1.5,0.1c0.1-0.1,0.1-0.1,0.2-0.2c0.7-0.7,1.5-1.4,2.2-2h0.5l1.9,1.7c1.3,1.1,1.2,2.2-0.2,3.2
	c-0.4,0.4-0.7,0.7-1,1.1l-1.2,1.2l-2.2,2C201.5,112.5,201.3,111.9,201,111.8z"/>
<path class="st1" d="M138.1,167.5c-0.4-0.6-0.9-1.2-1.5-1.5c-1.6-1.1-0.9-1.8,0.1-2.6c0.4-0.4,0.8-0.8,1.2-1.3
	c0.7-0.7,1,0.3,1.5,0.5c1.6,1.9,3.4,3.6,5.2,5.3l-0.2,0.6c-0.6,0.4-1.1,0.9-1.5,1.5c-0.6,0.2-0.8,1.1-1.6,0.8
	c-0.8-1-1.6-1.9-2.6-2.7L138.1,167.5z"/>
<path class="st1" d="M175,135.5c-1.5-1.5-2.9-3.1-4.5-4.6c-0.8-0.8-0.4-1.1,0.2-1.6s0.8-1.2,1.6-0.3c1.6,1.7,3.3,3.3,5,5
	c1.2,1.2-0.5,1.4-0.7,2.1C175.7,137,175.6,135.7,175,135.5z"/>
<path class="st1" d="M174,138.8c-1.1,1.6-2.1,1.1-3.1-0.1c-1.3-1.4-2.6-2.7-4-4c-0.9-0.8-0.2-1.1,0.3-1.6s0.9-1.1,1.6-0.3
	c1.3,1.4,2.6,2.6,3.9,3.9c0.4,0.4,0.6,0.9,1.3,0.9c0,0.3,0,0.5,0.3,0.6L174,138.8L174,138.8z"/>
<path class="st1" d="M179.7,132.7c-1.8-1.8-3.6-3.6-5.4-5.4c-0.6-0.6-0.7-1,0-1.6s1-1.2,1.9-0.2c1.7,1.8,3.5,3.5,5.3,5.3
	c0,0.3,0,0.6-0.2,0.8l-1.1,1.1L179.7,132.7z"/>
<path class="st1" d="M184.4,128.4c-0.6,0.5-1,0.8-1.7,0c-1.5-1.7-3.1-3.2-4.7-4.7c-1-0.9-0.3-1.3,0.3-1.9s1-0.7,1.6,0
	c1.8,1.9,3.6,3.8,5.4,5.6L184.4,128.4z"/>
<path class="st1" d="M152,160.8c-1.1,1.4-1.9,1.2-3-0.1c-1.2-1.4-2.5-2.8-3.9-4c-0.9-0.8-0.4-1.2,0.1-1.9s1.1-0.6,1.8,0.1
	c1.7,1.7,3.4,3.4,5.1,5C152.3,160.1,152.2,160.5,152,160.8z"/>
<path class="st1" d="M168.6,143.7c-1.7-1.8-3.4-3.5-5.2-5.2c-0.8-0.8-0.7-1.2,0.1-1.9s1.2-0.7,1.9,0c1.7,1.7,3.4,3.4,5.1,5
	c0.4,0.8-0.6,1-0.8,1.6l-0.6,0.5L168.6,143.7z"/>
<path class="st1" d="M186.5,125.2c-1.1-2.1-3.1-3.4-4.7-5.1c-0.6-0.7-0.8-1-0.1-1.8s1.2-0.9,2,0c1.3,1.5,2.8,2.8,4.2,4.2l1.1,1.2
	l-1,1.2C187.6,125.3,187,125.4,186.5,125.2z"/>
<path class="st1" d="M190.3,121.7c-0.5-1.4-1.8-2-2.7-3.1c-0.7-0.8-1.4-1.5-2.1-2.1c-0.8-0.7-0.9-1.1-0.1-2s1.3-0.6,2,0.1
	c1.7,1.7,3.4,3.4,5.2,5.1c0,0.2,0,0.4-0.1,0.5l-1.3,1.3L190.3,121.7z"/>
<path class="st1" d="M157.6,154.7c-1.8-1.8-3.5-3.7-5.3-5.4c-0.7-0.7-0.6-1.1,0.1-1.6s0.9-1.1,1.8-0.3c1.6,1.7,3.4,3.4,5.1,5
	c0.5,0.5,0.3,0.7,0,1l-1.1,1.2L157.6,154.7z"/>
<path class="st1" d="M153.7,158.3c-1.7-1.8-3.4-3.6-5.1-5.3c-0.8-0.8-0.5-1.1,0.1-1.8s1-0.9,1.8-0.1c1.6,1.7,3.3,3.3,5,4.9
	c0.2,0.3,0.4,0.5,0.4,0.8c-0.4,0.2-0.8,0.6-1,1C154.6,158.1,154.2,158.4,153.7,158.3z"/>
<path class="st1" d="M196,116.8c-1.7,1.5-1.7,1.4-3.4-0.4c-1.1-1.2-2.2-2.4-3.5-3.5c-0.8-0.7-0.8-1.2-0.1-2s1.2-0.6,1.9,0.1
	c1.7,1.7,3.4,3.3,5.1,5C196.2,116.2,196.2,116.5,196,116.8z"/>
<path class="st1" d="M162.6,150.2c-0.8,1-1.5,0.7-2.3-0.1c-1.3-1.4-2.7-2.7-4.1-4c-0.6-0.6-1.4-1-0.3-2c0.9-0.8,1.3-0.8,2.1,0.1
	c1.4,1.5,2.9,2.9,4.4,4.3l0.6,0.5l-0.1,0.9l0,0L162.6,150.2L162.6,150.2z"/>
<path class="st1" d="M142,160.4c-0.1-0.7-1.7-0.8-0.6-1.9c0.6-0.7,1.1-0.8,1.8-0.1c1.7,1.8,3.5,3.5,5.3,5.2L148,165
	c-1.2,0.9-1.5-0.7-2.4-0.8c-0.1-0.4-0.4-0.7-0.8-0.9c-0.6-0.8-1.2-1.4-2-2L142,160.4z"/>
<path class="st1" d="M198,114.4c-1.7-1.8-3.5-3.6-5.2-5.3c-0.5-0.5-0.9-0.9-0.2-1.6s1,0,1.4,0.3c1.8,1.7,3.6,3.5,5.4,5.2v0.6
	l-0.4,0.4L198,114.4z"/>
<path class="st1" d="M243.1,134.4l-0.1,0.7C242.9,134.9,243,134.6,243.1,134.4z"/>
<path class="st1" d="M174,122.1c-0.2,0.4-0.6,0.8-1,1C172.9,122.3,173.2,121.9,174,122.1z"/>
<path class="st1" d="M180.4,115.7c-0.2,0.4-0.6,0.8-1,1C179.3,115.8,179.6,115.5,180.4,115.7z"/>
<path class="st1" d="M177.2,118.8c-0.2,0.4-0.6,0.8-1,1C176.1,119.1,176.4,118.7,177.2,118.8z"/>
<path class="st1" d="M183.6,112.4c-0.2,0.4-0.6,0.8-1,1C182.5,112.7,182.8,112.3,183.6,112.4z"/>
<path class="st1" d="M178.8,117.2l-0.7,0.7C178.1,117.4,178.4,117.2,178.8,117.2z"/>
<path class="st1" d="M173,123l-0.7,0.7C172.4,123.2,172.5,123,173,123z"/>
<path class="st1" d="M182,114.1c-0.1,0.3-0.3,0.5-0.6,0.7C181.3,114.2,181.5,114,182,114.1z"/>
<path class="st1" d="M185.3,110.8l-0.7,0.7C184.5,111,184.8,110.8,185.3,110.8z"/>
<path class="st1" d="M187.2,108.9l-0.4,0.4L187.2,108.9z"/>
<path class="st1" d="M175,121.1l-0.4,0.3L175,121.1z"/>
<path class="st1" d="M175.6,120.4l-0.3,0.4L175.6,120.4z"/>
<path class="st1" d="M174.6,121.4l-0.4,0.3L174.6,121.4z"/>
<path class="st1" d="M174.3,121.7l-0.3,0.3L174.3,121.7z"/>
<path class="st1" d="M176,120.1l-0.4,0.3L176,120.1z"/>
<path class="st1" d="M179.4,116.6l-0.3,0.4L179.4,116.6z"/>
<path class="st1" d="M178.2,117.9c-0.1,0.1-0.2,0.2-0.3,0.3C177.9,118.1,178.1,118,178.2,117.9z"/>
<path class="st1" d="M181.1,115l-0.4,0.3L181.1,115z"/>
<path class="st1" d="M180.7,115.3l-0.3,0.3L180.7,115.3z"/>
<path class="st1" d="M181.4,114.7c-0.1,0.1-0.2,0.2-0.3,0.3C181.1,114.9,181.3,114.8,181.4,114.7z"/>
<path class="st1" d="M177.9,118.2l-0.4,0.3L177.9,118.2z"/>
<path class="st1" d="M182.4,113.7L182,114L182.4,113.7z"/>
<path class="st1" d="M177.5,118.5l-0.3,0.3L177.5,118.5z"/>
<path class="st1" d="M183.9,112.1l-0.3,0.3L183.9,112.1z"/>
<path class="st1" d="M184.3,111.8l-0.4,0.3L184.3,111.8z"/>
<path class="st1" d="M184.6,111.5l-0.3,0.4L184.6,111.5z"/>
<path class="st1" d="M186.2,109.9l-0.3,0.4L186.2,109.9z"/>
<path class="st1" d="M186.5,109.6l-0.3,0.3L186.5,109.6z"/>
<path class="st1" d="M186.8,109.2l-0.4,0.3L186.8,109.2z"/>
<path class="st1" d="M165.9,147c-0.3,0.4-0.9,0.4-1.2,0.1c0,0-0.1-0.1-0.1-0.1c-1.6-1.7-3.3-3.4-5-5c-0.9-0.9-0.1-1.2,0.3-1.8
	s1-0.8,1.6-0.1c1.3,1.5,2.8,2.9,4.3,4.3C166.8,145.3,166.9,146,165.9,147L165.9,147L165.9,147z"/>
<path class="st1" d="M186.4,91.6c0,1.1-0.4,2.1-1.1,2.9c-0.4,0.4-0.7,0.8-1.1,1.1c-2.7,2.4-4.9,5.5-6.1,8.9
	c-2.8,7.2-8.4,11.7-15.8,13.8c-0.8,0.2-1.4,0.6-2,1.2c-5.3,5.3-10.7,10.7-16,16c-0.6,0.6-1,1.3-1.3,2.2c-2.5,8.7-8.3,14.2-16.9,16.9
	c-0.8,0.2-1.4,0.6-2,1.2c-2.6,2.6-5.1,5.1-7.7,7.7c-2.4,2.4-4.6,2.5-7,0.1c-7.3-7.2-14.5-14.4-21.8-21.7c-2.1-2.1-2.1-4.5,0-6.6
	c2.5-2.5,5-5,7.5-7.5c0.5-0.5,0.9-1.2,1.1-1.9c2.5-9.5,8.5-15.6,18-18c0.7-0.2,1.3-0.5,1.8-1c5-5.1,10.1-10.1,15.2-15.2
	c0.6-0.6,1-1.3,1.2-2.2c2.6-9.4,8.6-15.4,18-17.8c0.6-0.1,1.2-0.5,1.6-0.9c1.3-1.3,2.6-2.7,4-4c2.5-2.5,4.7-2.5,7.2,0
	c5.7,5.6,11.3,11.3,17,17c1.5,1.5,3,3,4.5,4.5C185.7,89.2,186.3,90.4,186.4,91.6z M119.8,109.2c-12.2-0.1-22.1,9.8-22.2,22
	s9.8,22.1,22,22.2c12.1,0.1,22-9.7,22.2-21.8c0.1-12.2-9.6-22.2-21.9-22.4C119.9,109.2,119.9,109.2,119.8,109.2z M178,95.2
	c0-12.2-9.8-22.1-22-22.2c-12.2,0-22.1,9.8-22.2,22c0,12.2,9.8,22.1,22,22.2c0,0,0.1,0,0.1,0C168.1,117.1,177.9,107.3,178,95.2
	L178,95.2z"/>
<path class="st1" d="M137.8,135c-3,1.3-6,0.8-9.1,0.1c-1.1-0.3-2.3,0.4-2.7,1.5c-0.2,0.6,0.3,0.7,0.7,1c2.1,1.6,4.5,2.5,7.1,2.6
	c0.6,0,1.4-0.1,1.6,0.7s-0.4,1.1-0.8,1.5c-1.2,1.2-2.4,2.3-3.5,3.5c-0.9,1.1-1.7,0.9-2.7,0.2c-2.2-1.5-4-3.6-5.2-6
	c-0.8-1.7-1.8-0.6-2.7-0.5s-0.3,1-0.3,1.6c0.4,2.4,1.5,4.7,3.2,6.5c0.4,0.4,0.9,0.8,0.6,1.5s-0.9,0.5-1.4,0.5c-1.9,0-3.7,0-5.6,0
	c-0.7,0.1-1.4-0.4-1.5-1.1c0-0.1,0-0.1,0-0.2c-0.6-2.8-0.4-5.7,0.5-8.4c0.6-1.6-0.7-1.7-1.4-2.2s-1.1,0.4-1.4,0.8
	c-1.5,2.1-2.3,4.5-2.4,7c0,0.6,0,1.1-0.6,1.3s-1-0.2-1.4-0.6c-1.3-1.3-2.6-2.6-3.9-3.8c-0.7-0.5-0.8-1.4-0.3-2.1
	c0-0.1,0.1-0.1,0.1-0.2c1.6-2.4,3.7-4.3,6.3-5.5c1.5-0.7,0.6-1.6,0.5-2.4c-0.1-1.1-0.9-0.7-1.5-0.6c-2.4,0.4-4.7,1.5-6.6,3.1
	c-0.4,0.4-0.8,1.1-1.6,0.7s-0.5-1.1-0.5-1.7c0-1.7,0-3.4,0-5.1c-0.1-0.8,0.4-1.5,1.2-1.7c0.1,0,0.2,0,0.2,0c2.7-0.6,5.6-0.4,8.2,0.5
	c1.6,0.6,1.7-0.7,2.2-1.4s-0.3-1.1-0.8-1.4c-2-1.5-4.4-2.3-6.9-2.4c-0.6,0-1.2,0-1.5-0.7s0.3-1.1,0.7-1.5c1.2-1.3,2.5-2.5,3.7-3.8
	c0.5-0.7,1.4-0.8,2.1-0.3c0,0,0.1,0.1,0.1,0.1c2.4,1.5,4.2,3.6,5.4,6.2c0.7,1.4,1.5,0.7,2.3,0.6c1.1-0.1,0.7-1,0.6-1.6
	c-0.4-2.3-1.4-4.5-3-6.3c-0.4-0.5-1.2-0.9-0.8-1.8s1.2-0.5,1.9-0.5c1.7,0,3.3,0,5,0c1.1,0,1.5,0.4,1.7,1.4c0.6,2.7,0.4,5.6-0.5,8.2
	c-0.6,1.6,0.7,1.7,1.3,2.2c0.8,0.7,1.1-0.3,1.4-0.7c1.4-1.9,2.2-4.2,2.3-6.5c0-0.7-0.1-1.5,0.7-1.8s1.3,0.4,1.7,0.8
	c1.2,1.2,2.3,2.4,3.5,3.5c0.7,0.5,0.9,1.4,0.4,2.1c-0.1,0.1-0.1,0.2-0.2,0.3c-1.5,2.3-3.6,4.1-6.1,5.3c-1.6,0.7-0.8,1.7-0.6,2.6
	c0.2,1.1,1.2,0.4,1.7,0.3c2.4-0.4,4.6-1.5,6.4-3.1c0.6-0.6,1.3-1.3,2,0C137.4,130,137.8,132.5,137.8,135z"/>
<path class="st1" d="M137.8,135c0.1-2.5-0.4-5,0.2-7.5C138,130,138.4,132.5,137.8,135z"/>
<path class="st1" d="M174.2,95v1c0,3.4-0.1,3.4-3.4,3.6c-2.2,0.2-4.4-0.1-6.5-0.8c-1.5-0.6-1.4,1-2,1.5s0.3,0.9,0.6,1.2
	c2.1,1.5,4.5,2.4,7.1,2.6c0.6,0,1.3,0,1.5,0.7s-0.3,1.1-0.7,1.5c-1.2,1.3-2.5,2.5-3.7,3.8c-0.5,0.7-1.4,0.8-2.1,0.3
	c-0.1,0-0.1-0.1-0.2-0.2c-2.3-1.5-4.2-3.7-5.4-6.2c-0.7-1.5-1.6-0.8-2.5-0.6c-1.1,0.2-0.6,1.1-0.5,1.7c0.4,2.4,1.5,4.6,3.1,6.4
	c0.4,0.4,0.9,0.9,0.6,1.5s-1,0.7-1.6,0.7c-1.6,0-3.3,0-5,0c-1.3,0-1.8-0.5-2-1.7c-0.5-2.7-0.3-5.5,0.6-8.1c0.6-1.6-0.8-1.6-1.4-2.1
	c-0.8-0.7-1.1,0.4-1.4,0.8c-1.5,2-2.3,4.5-2.4,7c0,0.5,0,1.1-0.6,1.3s-1-0.1-1.4-0.5c-1.3-1.3-2.6-2.7-4-4c-0.6-0.5-0.8-1.3-0.3-2
	c0,0,0.1-0.1,0.1-0.1c1.5-2.3,3.7-4.2,6.1-5.5c1.4-0.7,0.9-1.6,0.7-2.5c-0.2-1.2-1.1-0.6-1.7-0.5c-2.4,0.4-4.6,1.5-6.4,3.1
	c-0.4,0.4-0.8,0.9-1.5,0.7s-0.7-1-0.7-1.7c0-1.7,0-3.4,0-5.1c-0.2-0.8,0.4-1.6,1.2-1.8c0.1,0,0.2,0,0.3,0c2.7-0.5,5.6-0.4,8.2,0.6
	c1.5,0.6,1.6-0.7,2.2-1.4c0.7-0.9-0.3-1.1-0.7-1.4c-2-1.5-4.4-2.3-6.9-2.4c-0.6,0-1.2,0-1.5-0.6s0.3-1.2,0.7-1.6
	c1.2-1.2,2.4-2.4,3.6-3.6c0.5-0.7,1.4-0.9,2.1-0.4c0.1,0.1,0.2,0.1,0.2,0.2c2.3,1.5,4.2,3.7,5.4,6.2c0.7,1.5,1.7,0.7,2.5,0.6
	c1-0.1,0.6-1,0.5-1.6c-0.4-2.4-1.5-4.7-3.2-6.5c-0.4-0.4-0.9-0.8-0.6-1.5s0.9-0.6,1.5-0.6c1.8,0,3.5,0.1,5.3,0
	c1.2,0,1.6,0.5,1.8,1.5c0.5,2.7,0.3,5.6-0.6,8.2c-0.6,1.6,0.9,1.6,1.5,2.1s1-0.3,1.2-0.7c1.5-2,2.4-4.3,2.5-6.8c0-0.6,0-1.4,0.7-1.7
	s1.2,0.3,1.6,0.8c1.2,1.2,2.3,2.4,3.5,3.5c1,0.9,0.9,1.6,0.2,2.6c-1.5,2.2-3.6,4-6,5.2c-1.6,0.7-0.8,1.8-0.6,2.6
	c0.2,1.1,1.1,0.4,1.7,0.4c2.3-0.4,4.5-1.4,6.3-3c0.4-0.4,0.9-1.1,1.6-0.7s0.6,1.2,0.6,1.8S174.2,94.2,174.2,95z"/>
</svg>
